<svg xmlns="http://www.w3.org/2000/svg" viewBox="0 0 119 136.19"><defs><style>.cls-1{fill:#fff;}.cls-2{fill:#efc30a;}.cls-3{fill:none;stroke:#000;stroke-miterlimit:10;}</style></defs><title>Asset 2</title><g id="Layer_2" data-name="Layer 2"><g id="Layer_1-2" data-name="Layer 1"><ellipse class="cls-1" cx="59.5" cy="57.61" rx="59.5" ry="57.61"/><circle class="cls-2" cx="59.49" cy="57.61" r="52.1"/><line class="cls-3" x1="25.66" y1="135.69" x2="26.63" y2="135.69"/><g id="Page-1"><g id="_023---Skull" data-name="023---Skull"><path id="Shape" d="M59.5,26.25c1.61,0,3.14,0,3.14-3.14a6.25,6.25,0,0,0-1-3.54A6.34,6.34,0,0,1,59.5,20a6.25,6.25,0,0,1-2.17-.4,6.21,6.21,0,0,0-1,3.54C56.36,26.25,57.89,26.25,59.5,26.25Z"/><path id="Shape-2" data-name="Shape" d="M47.28,15.42a4.22,4.22,0,0,0,.29,2.16c.5,1.53,1,3,4,2a6.3,6.3,0,0,0,3.06-2,6.2,6.2,0,0,1-1.3-3.48A40.93,40.93,0,0,0,47.28,15.42Z"/><path id="Shape-3" data-name="Shape" d="M57.82,16.36a3.28,3.28,0,0,0,3.36,0l.31-.25a3,3,0,0,0,1.12-2.3,46.44,46.44,0,0,0-6.25,0,3,3,0,0,0,1.17,2.34Z"/><path id="Shape-4" data-name="Shape" d="M32.3,25.5l-.09.13,0,.05a6,6,0,0,1,3.51.6A6.26,6.26,0,0,0,37,22.86a4.33,4.33,0,0,0-.2-2.16A22,22,0,0,0,32.3,25.5Z"/><path id="Shape-5" data-name="Shape" d="M39.11,32.79a6.27,6.27,0,0,0,3.67.19c3.05-.66,2.76-2.07,2.41-3.71s-.67-3.08-3.73-2.42a6.22,6.22,0,0,0-3.27,1.69,6.19,6.19,0,0,1,1,4C39.15,32.62,39.12,32.7,39.11,32.79Z"/><path id="Shape-6" data-name="Shape" d="M34,38.07a6.27,6.27,0,0,0,1,3.54,3.78,3.78,0,0,0,1.89,1.84,3.47,3.47,0,0,0,2.39-.71c.68-.39,1.59-.92,1.8-1.72a3.8,3.8,0,0,0-.67-2.56,6.16,6.16,0,0,0-2.6-2.59A6.29,6.29,0,0,1,34,38.07Z"/><path id="Shape-7" data-name="Shape" d="M64.41,17.61a6.3,6.3,0,0,0,3.06,2c3,1,3.45-.49,4-2a4.15,4.15,0,0,0,.28-2.18,41.39,41.39,0,0,0-6-1.27A6.18,6.18,0,0,1,64.41,17.61Z"/><path id="Shape-8" data-name="Shape" d="M82.21,20.64A4.23,4.23,0,0,0,82,22.86a6.26,6.26,0,0,0,1.32,3.42,6,6,0,0,1,3.48-.61A21.39,21.39,0,0,0,82.21,20.64Z"/><path id="Shape-9" data-name="Shape" d="M88.05,29.47a3.11,3.11,0,0,0-2-.7l-.32,0a3.14,3.14,0,1,0,2.3.69Z"/><path id="Shape-10" data-name="Shape" d="M73.81,29.25c-.35,1.66-.64,3.07,2.41,3.73a6.27,6.27,0,0,0,3.66-.19c0-.09,0-.16-.05-.25a6.19,6.19,0,0,1,1-4,6.2,6.2,0,0,0-3.27-1.69C74.48,26.19,74.15,27.68,73.81,29.25Z"/><path id="Shape-11" data-name="Shape" d="M78.64,38.45A3.82,3.82,0,0,0,78,41c.21.81,1.13,1.33,1.79,1.72a3.47,3.47,0,0,0,2.4.72,3.78,3.78,0,0,0,1.89-1.84,6.27,6.27,0,0,0,1-3.54,6.27,6.27,0,0,1-3.77-2.2,6.15,6.15,0,0,0-2.6,2.57Z"/><path id="Shape-12" data-name="Shape" d="M71.39,52.78c-1,0-1.92,0-2.67.08s-1.11.05-1.51.05a2.73,2.73,0,0,0-2.27.91,4.08,4.08,0,0,0-.74,2.56c0,3.14,2.35,7.5,6.18,7.5,4.94,0,9.5-.76,9.5-6.27a3.92,3.92,0,0,0-1.13-3c-1.6-1.53-4.72-1.83-7.36-1.83Z"/><path id="Shape-13" data-name="Shape" d="M54.14,53.85a2.9,2.9,0,0,0-2.36-.94c-.4,0-.91,0-1.51-.05s-1.67-.08-2.67-.08c-2.64,0-5.76.3-7.36,1.83a3.92,3.92,0,0,0-1.13,3c0,5.51,4.57,6.27,9.5,6.27,3.89,0,6.29-4.35,6.29-7.47a4.05,4.05,0,0,0-.76-2.57Z"/><path id="Shape-14" data-name="Shape" d="M86.15,48.2a1.57,1.57,0,0,1,1.57,1.57,42.56,42.56,0,0,0,.47,5.35,36,36,0,0,0,2.42-9.9c-.08,0-.17,0-.26-.08a7.48,7.48,0,0,1-2.7-2.07c-.19-.21-.34-.42-.5-.63-.12.25-.24.49-.38.75A6.47,6.47,0,0,1,83,46.49a4.67,4.67,0,0,1-1.18.16,7.15,7.15,0,0,1-3.61-1.19,6.17,6.17,0,0,1-3.24-3.62,6.48,6.48,0,0,1,1-4.94c.15-.26.3-.47.46-.7-.27,0-.54-.07-.82-.13-4.05-.87-5.67-3.37-4.83-7.42s3.4-5.72,7.47-4.84c.29.06.54.14.8.21,0-.27-.1-.53-.13-.82a6.81,6.81,0,0,1,.75-4.33,29.55,29.55,0,0,0-4.74-2.37,9.84,9.84,0,0,1-.47,2.06c-1,3-2.73,4.5-5.25,4.5a8.68,8.68,0,0,1-2.65-.47c-.28-.09-.53-.2-.78-.3,0,.27,0,.54,0,.83,0,4.16-2.11,6.27-6.27,6.27s-6.27-2.11-6.27-6.27c0-.29,0-.56,0-.83-.26.1-.51.21-.78.3a8.66,8.66,0,0,1-2.65.47c-2.51,0-4.27-1.5-5.25-4.5a10.15,10.15,0,0,1-.47-2,30.83,30.83,0,0,0-4.73,2.37,6.84,6.84,0,0,1,.74,4.3c0,.29-.08.55-.13.82.26-.08.52-.16.81-.22,4.06-.88,6.57.74,7.45,4.8s-.77,6.59-4.82,7.47c-.29.06-.56.09-.83.13.16.23.31.45.46.71a6.47,6.47,0,0,1,1,4.93,6.19,6.19,0,0,1-3.25,3.63,7.12,7.12,0,0,1-3.59,1.19A4.68,4.68,0,0,1,36,46.48a6.47,6.47,0,0,1-3.81-3.29c-.15-.25-.26-.5-.38-.75-.16.21-.31.43-.51.64a7.5,7.5,0,0,1-2.72,2.07l-.23.07a35.76,35.76,0,0,0,2.42,9.91,42.15,42.15,0,0,0,.47-5.36,1.57,1.57,0,0,1,3.14,0A48.61,48.61,0,0,1,31.16,66a6.84,6.84,0,0,0,1.55,7.86A6.43,6.43,0,0,0,40,75c3.28-1.64,5.61-2,7.14-1a3,3,0,0,1,1.4,2.44,1.57,1.57,0,0,1-3.12.21,3.39,3.39,0,0,0-1.59.2A35.62,35.62,0,0,1,46.91,87c.12.29,1,2.06,4.75,2.91V87.4a1.57,1.57,0,1,1,3.14,0v3c1,.08,2,.13,3.14.16V87.4a1.57,1.57,0,1,1,3.14,0v3.12c1.11,0,2.16-.08,3.14-.16v-3a1.57,1.57,0,1,1,3.14,0v2.52c3.66-.83,4.59-2.56,4.75-2.92a35.73,35.73,0,0,1,3.09-10.14c-2-.56-3-.11-3.33.33a1.54,1.54,0,0,1-2.09.67,1.6,1.6,0,0,1-.69-2.14,4.23,4.23,0,0,1,2.47-2c2-.66,4.48-.23,7.47,1.25a6.43,6.43,0,0,0,7.27-1.13A6.84,6.84,0,0,0,87.83,66a48.61,48.61,0,0,1-3.25-16.26,1.57,1.57,0,0,1,1.57-1.57ZM56.36,35.66h1.57V34.09a1.57,1.57,0,0,1,3.14,0v1.57h1.57a1.57,1.57,0,0,1,0,3.14H61.07v4.7a1.57,1.57,0,1,1-3.14,0v-4.7H56.36a1.57,1.57,0,1,1,0-3.14ZM48.62,67C45.49,67,36,67,36,57.61a7,7,0,0,1,2.1-5.27c3.18-3,8.91-2.78,12.34-2.62.54,0,1,0,1.37,0a5.91,5.91,0,0,1,4.78,2.07A7.06,7.06,0,0,1,58,56.42C58,61.43,54.17,67,48.62,67Zm14,12.54a4.64,4.64,0,0,1-3.14-1.24,4.64,4.64,0,0,1-3.14,1.24,5.09,5.09,0,0,1-4.7-5.5c0-3.15,2.15-5.25,5.12-8.14l1.61-1.59a1.57,1.57,0,0,1,2.22,0c.57.57,1.1,1.1,1.61,1.59,3,2.89,5.12,5,5.12,8.14a5.09,5.09,0,0,1-4.7,5.5ZM70.38,67c-5.49,0-9.31-5.61-9.31-10.64a7.1,7.1,0,0,1,1.44-4.54,5.78,5.78,0,0,1,4.7-2.07c.36,0,.83,0,1.37,0,3.43-.16,9.16-.42,12.34,2.62A7,7,0,0,1,83,57.61C83,67,73.5,67,70.38,67Z"/><path id="Shape-15" data-name="Shape" d="M60,68.17l-.53-.52-.53.52c-2.82,2.74-4.17,4.14-4.17,5.89,0,1.16.59,2.36,1.57,2.36s1.69-1.31,1.7-1.32a1.49,1.49,0,0,1,1.45-.93,1.57,1.57,0,0,1,1.43.93c0,.06.63,1.32,1.7,1.32s1.57-1.2,1.57-2.36C64.2,72.31,62.85,70.92,60,68.17Z"/><path id="Shape-16" data-name="Shape" d="M79.88,85.83a22.31,22.31,0,0,1,1.19-7.06,9.33,9.33,0,0,1-3-.74,32.14,32.14,0,0,0-2.91,9.51v4.56a1.57,1.57,0,1,1-3.14,0v-.7a13.47,13.47,0,0,1-4.7,1.72v2.11a1.57,1.57,0,1,1-3.14,0V93.5q-1.48.11-3.14.16v3.15a1.57,1.57,0,0,1-3.14,0V93.66q-1.66,0-3.14-.16v1.74a1.57,1.57,0,1,1-3.14,0V93.13A13.43,13.43,0,0,1,47,91.4v.71a1.57,1.57,0,1,1-3.14,0V87.55A32.14,32.14,0,0,0,40.9,78a9.33,9.33,0,0,1-3,.74,22.31,22.31,0,0,1,1.19,7.05c0,7.71,0,15.68,20.38,15.68S79.88,93.54,79.88,85.83Z"/><path id="Shape-17" data-name="Shape" d="M90.84,41.8v-.12a32.38,32.38,0,0,0-.26-5.47,6.19,6.19,0,0,1-2.23,1.5A6.29,6.29,0,0,0,90,41a6.22,6.22,0,0,0,.83.81Z"/><path id="Shape-18" data-name="Shape" d="M28.15,41.65v.14A6.17,6.17,0,0,0,29,41a6.29,6.29,0,0,0,1.66-3.29,6.19,6.19,0,0,1-2.23-1.5,33.21,33.21,0,0,0-.24,5.44Z"/><path id="Shape-19" data-name="Shape" d="M29.8,31.58a3.14,3.14,0,1,0,1.14-2.11A3.14,3.14,0,0,0,29.8,31.58Z"/></g></g></g></g></svg>