<svg xmlns="http://www.w3.org/2000/svg" viewBox="0 0 119 136.19"><defs><style>.cls-1{fill:#fff;}.cls-2{fill:#efc30a;}.cls-3{fill:none;stroke:#000;stroke-miterlimit:10;}</style></defs><title>Asset 4</title><g id="Layer_2" data-name="Layer 2"><g id="Layer_1-2" data-name="Layer 1"><ellipse class="cls-1" cx="59.5" cy="57.61" rx="59.5" ry="57.61"/><circle class="cls-2" cx="59.49" cy="57.61" r="52.1"/><line class="cls-3" x1="25.66" y1="135.69" x2="26.63" y2="135.69"/><g id="_Group_" data-name="&lt;Group&gt;"><g id="_Group_2" data-name="&lt;Group&gt;"><g id="_Group_3" data-name="&lt;Group&gt;"><path id="_Compound_Path_" data-name="&lt;Compound Path&gt;" d="M78.81,24H73.89a4.1,4.1,0,0,0-3.28-1.64H48.74a4.11,4.11,0,0,0-4.1,4.1V29.7a4.11,4.11,0,0,0,4.1,4.1h.18v4.1a1.37,1.37,0,0,0,1.37,1.37h.18a7.68,7.68,0,0,1-2.15,4.11l-2.41,2.41a9.78,9.78,0,0,0-1.82,2.5H37A2.73,2.73,0,0,0,34.29,51v5.63l-6.22,6.22a1.37,1.37,0,0,0-.4,1V84.44a7.9,7.9,0,0,0,7.89,7.89H65.14A6.84,6.84,0,0,0,72,85.49V75.28a1.37,1.37,0,0,0-2.73,0V85.49a4.11,4.11,0,0,1-4.1,4.1H53.21a7.86,7.86,0,0,0,1.93-5.16V63.85a1.37,1.37,0,0,0-.4-1l-6.22-6.22V51a2.73,2.73,0,0,0-1.43-2.4,7.13,7.13,0,0,1,.76-.9l2.41-2.41a10.39,10.39,0,0,0,3-6.05h8.5a10.39,10.39,0,0,0,3,6.05l2.41,2.41a7.06,7.06,0,0,1,2.09,5V63A1.37,1.37,0,1,0,72,63V52.77a9.78,9.78,0,0,0-2.89-7l-2.41-2.41a7.68,7.68,0,0,1-2.15-4.11h.18a1.37,1.37,0,0,0,1.37-1.37V33.8h2.51v3.56a1.37,1.37,0,0,0,.4,1l2,2a1.37,1.37,0,0,0,1.93-1.93l-1.62-1.62V33.74a4.11,4.11,0,0,0,2.58-1.58h4.92a1.37,1.37,0,0,0,1.37-1.37V25.33A1.37,1.37,0,0,0,78.81,24ZM45.78,51V56H37V51Zm6.62,33.4a5.16,5.16,0,0,1-5.16,5.16H35.56a5.16,5.16,0,0,1-5.16-5.16v-20l5.72-5.72H46.68l5.72,5.72v20Zm10.93-47.9H51.66V33.8H63.33Zm7.28-5.47H48.74a1.37,1.37,0,0,1-1.37-1.37V26.42a1.37,1.37,0,0,1,1.37-1.37H70.61A1.37,1.37,0,0,1,72,26.42V29.7A1.37,1.37,0,0,1,70.61,31.07Zm6.84-1.64H74.71V26.69h2.73Z"/><path id="_Path_" data-name="&lt;Path&gt;" d="M84.19,29.43h2.19a1.37,1.37,0,1,0,0-2.73H84.19a1.37,1.37,0,1,0,0,2.73Z"/><path id="_Path_2" data-name="&lt;Path&gt;" d="M96.31,29.43a1.37,1.37,0,0,0,0-2.73H92.72a1.37,1.37,0,0,0,0,2.73Z"/><path id="_Path_3" data-name="&lt;Path&gt;" d="M88.72,33.8l-4.07-1.46a1.37,1.37,0,1,0-.92,2.58l4.07,1.46a1.37,1.37,0,1,0,.92-2.58Z"/><path id="_Path_4" data-name="&lt;Path&gt;" d="M96.77,36.67l-3-1.08a1.37,1.37,0,1,0-.92,2.58l3,1.08a1.37,1.37,0,1,0,.92-2.58Z"/><path id="_Path_5" data-name="&lt;Path&gt;" d="M70.66,67.76a1.37,1.37,0,1,0,1,.4A1.38,1.38,0,0,0,70.66,67.76Z"/><path id="_Path_6" data-name="&lt;Path&gt;" d="M36.43,69.49a1.37,1.37,0,1,0,0,2.73h9.94a1.37,1.37,0,1,0,0-2.73Z"/><path id="_Path_7" data-name="&lt;Path&gt;" d="M46.37,76.06H36.43a1.37,1.37,0,0,0,0,2.73h9.94a1.37,1.37,0,1,0,0-2.73Z"/></g></g></g></g></g></svg>