<svg xmlns="http://www.w3.org/2000/svg" viewBox="0 0 119 136.19"><defs><style>.cls-1{fill:#fff;}.cls-2{fill:#efc30a;}.cls-3{fill:none;stroke:#000;stroke-miterlimit:10;}</style></defs><title>Asset 3</title><g id="Layer_2" data-name="Layer 2"><g id="Layer_1-2" data-name="Layer 1"><ellipse class="cls-1" cx="59.5" cy="57.61" rx="59.5" ry="57.61"/><circle class="cls-2" cx="59.49" cy="57.61" r="52.1"/><line class="cls-3" x1="25.66" y1="135.69" x2="26.63" y2="135.69"/><path d="M92.61,38l-2.9-1.62a1.1,1.1,0,0,0-1.47.38,1,1,0,0,0,.39,1.42l2.58,1.44-1.18,2L61.76,25.8l1.18-2L84.28,35.74a1.1,1.1,0,0,0,1.47-.38,1,1,0,0,0-.39-1.42L63.69,21.84a1.81,1.81,0,0,0-2.43.63l-1.55,2.6a1.69,1.69,0,0,0,.65,2.35l1.82,1-5.93,9.93L55,37.71a1.1,1.1,0,0,0-1.47.38l-3.59,6-2.69-1.5a1.81,1.81,0,0,0-2.43.63L41,49.74a2.06,2.06,0,0,0,.79,2.87l2.35,1.31L42.89,56l-.13-.07a2.71,2.71,0,0,0-3.63.94l-1.51,2.52a1,1,0,0,0-.14.61,2.6,2.6,0,0,0-.66.74l-.73,1.22a2.49,2.49,0,0,0-.34,1.58,2.62,2.62,0,0,0-1.24,1.07l-.73,1.22a2.48,2.48,0,0,0-.34,1.58,2.61,2.61,0,0,0-1.24,1.07l-.73,1.22a2.5,2.5,0,0,0-.33.92,1.09,1.09,0,0,0-.47.43l-1.51,2.52a2.53,2.53,0,0,0,1,3.51l.16.09-5,8.43a4.19,4.19,0,0,0-.59,2.12l0,3.92a1.08,1.08,0,0,0,1.62.9l3.49-2A4.38,4.38,0,0,0,31.34,89l1.8-3a1,1,0,0,0-.39-1.42.5.5,0,0,1-.19-.69.54.54,0,0,1,.72-.19,1.1,1.1,0,0,0,1.47-.38l1.64-2.74.16.09a2.71,2.71,0,0,0,3.63-.94l1.51-2.52a1,1,0,0,0,.14-.61,2.59,2.59,0,0,0,.66-.74l.73-1.22A2.49,2.49,0,0,0,43.54,73,2.61,2.61,0,0,0,44.78,72l.73-1.22a2.49,2.49,0,0,0,.34-1.58,2.62,2.62,0,0,0,1.24-1.07l.73-1.22a2.5,2.5,0,0,0,.33-.92,1.09,1.09,0,0,0,.47-.43L50.13,63a2.53,2.53,0,0,0-1-3.51L49,59.41l1.23-2.07,3.17,1.77a2.21,2.21,0,0,0,3-.77l.38-.64a.4.4,0,0,1,.54-.14l6.25,3.49A1.1,1.1,0,0,0,65,60.67a1,1,0,0,0-.39-1.42l-6.25-3.49a2.6,2.6,0,0,0-3.48.9c-.4.68-.39.66-.41.65-12.24-6.83-11.67-6.5-11.66-6.53l3.7-6.19L77.81,62,76.07,65a.61.61,0,0,1-.82.21L69,61.68a1.1,1.1,0,0,0-1.47.38,1,1,0,0,0,.39,1.42L74.17,67a2.81,2.81,0,0,0,3.76-1l1.93-3.23a1.69,1.69,0,0,0-.71-2.38l1.28-2.14a1.56,1.56,0,0,0,.21-.57,1.69,1.69,0,0,0,.42-.47l6.27-10.5a1.64,1.64,0,0,0,.21-.58,1.61,1.61,0,0,0,.41-.46l1.28-2.14a1.82,1.82,0,0,0,2.49-.6l1.55-2.6A1.69,1.69,0,0,0,92.61,38ZM33.33,70.72l.73-1.22a.51.51,0,0,1,.69-.18l6.4,3.57a.48.48,0,0,1,.18.67l-.73,1.22a.51.51,0,0,1-.69.18l-6.4-3.57A.48.48,0,0,1,33.33,70.72Zm0,10.81a2.71,2.71,0,0,0-2.61,1.28,2.52,2.52,0,0,0,.16,2.83l-1.38,2.3a2.26,2.26,0,0,1-.82.8L26.8,89.79l0-2.08a2.16,2.16,0,0,1,.31-1.09l5-8.43,2.36,1.32Zm5-2.88a.52.52,0,0,1-.69.18l-6.4-3.57a.48.48,0,0,1-.18-.67l1-1.64L39.28,77Zm5.35-9-.73,1.22a.51.51,0,0,1-.69.18l-6.4-3.57a.48.48,0,0,1-.18-.67l.73-1.22a.51.51,0,0,1,.69-.18L43.46,69A.48.48,0,0,1,43.65,69.69ZM46,65.82,45.23,67a.52.52,0,0,1-.69.18l-6.4-3.57A.48.48,0,0,1,38,63l.73-1.22a.51.51,0,0,1,.69-.18l6.4,3.57A.48.48,0,0,1,46,65.82ZM48.27,62l-1,1.64L40,59.53l1-1.64a.52.52,0,0,1,.69-.18l6.4,3.57A.48.48,0,0,1,48.27,62Zm-1.11-3.58L44.76,57,46,55,48.4,56.3ZM84,48.09l-4-2.25a1.1,1.1,0,0,0-1.47.38,1,1,0,0,0,.39,1.42l4,2.25L81.7,52l-4-2.25a1.1,1.1,0,0,0-1.47.38,1,1,0,0,0,.39,1.42l4,2.25-1.23,2.07-8.08-4.51,5.86-9.81L85.25,46Zm-6.6-11.14-1,1.72-8.08-4.51,1-1.72ZM59.27,49.29l1-1.72,8.08,4.51-1,1.72ZM64,29.48l3.43,1.91L66.2,33.53a1.57,1.57,0,0,0-.21.57,1.69,1.69,0,0,0-.42.47l-1,1.62A1,1,0,0,0,65,37.62a1.1,1.1,0,0,0,1.47-.38L67.23,36l8.08,4.51-1.23,2.07-4-2.25a1.1,1.1,0,0,0-1.47.38A1,1,0,0,0,69,42.09l4,2.25-1.23,2.07-4-2.25a1.1,1.1,0,0,0-1.47.38A1,1,0,0,0,66.65,46l4,2.25-1.23,2.07-8.08-4.51L64,41.44A1,1,0,0,0,63.57,40a1.1,1.1,0,0,0-1.47.38l-2.79,4.67a1.64,1.64,0,0,0-.21.58,1.61,1.61,0,0,0-.41.46l-1.28,2.14-1.29-.72,3.59-6a1,1,0,0,0-.39-1.42l-1.2-.67ZM54.9,40l2.41,1.34-3.06,5.12-2.41-1.34ZM69.21,54.84l1-1.72,8.08,4.51-1,1.72ZM86.32,44.22l-8.08-4.51,1-1.72,8.08,4.51Z"/></g></g></svg>