<svg xmlns="http://www.w3.org/2000/svg" viewBox="0 0 119 136.19"><defs><style>.cls-1{fill:#fff;}.cls-2{fill:#efc30a;}.cls-3{fill:none;stroke:#000;stroke-miterlimit:10;}</style></defs><title>Asset 1</title><g id="Layer_2" data-name="Layer 2"><g id="Layer_1-2" data-name="Layer 1"><ellipse class="cls-1" cx="59.5" cy="57.61" rx="59.5" ry="57.61"/><circle class="cls-2" cx="59.49" cy="57.61" r="52.1"/><line class="cls-3" x1="59.01" y1="135.69" x2="59.98" y2="135.69"/><path d="M60.13,79.83a6,6,0,1,0,5.74,6A5.88,5.88,0,0,0,60.13,79.83Zm0,9a3,3,0,1,1,2.87-3A2.95,2.95,0,0,1,60.13,88.85Z"/><path d="M108.72,51.45c-.08-.12.53.59-21.89-24.78A16.51,16.51,0,0,0,61,28.2a1.05,1.05,0,0,1-1.71,0,16.51,16.51,0,0,0-25.85-1.53L28,32.86c-1.29,1.45.81,3.49,2.1,2l5.47-6.19A13.71,13.71,0,0,1,57,30a3.84,3.84,0,0,0,6.3,0,13.71,13.71,0,0,1,21.46-1.29l16.7,18.9A108.1,108.1,0,0,0,70,38.92a10.88,10.88,0,0,0-8,2.25,3,3,0,0,1-3.76,0,10.88,10.88,0,0,0-7.94-2.23,108.37,108.37,0,0,0-31.5,8.71L25.52,40c1.28-1.45-.82-3.49-2.1-2L11.65,51.32a1.55,1.55,0,0,0,.06,2.1c12.1,12.14,16.4,17.11,25.6,21.7l1,7.62c2.3,17.73,22,26.3,35.35,15.27,1.49-1.22-.28-3.58-1.77-2.35-11.64,9.6-28.74,2.11-30.74-13.32L38.39,61.2C37.06,51,48,44,56.05,49.72l2.65,1.87V69.92a1.43,1.43,0,1,0,2.86,0V51.59l2.65-1.87c8.16-5.78,19,1.33,17.66,11.48-2.85,22-2.52,24.46-5.79,29.65-1,1.65,1.35,3.31,2.39,1.65,3.39-5.38,3.48-9.58,4.49-17.39,8.5-4.25,13-8.89,25.59-21.69A1.55,1.55,0,0,0,108.72,51.45ZM16.29,53.83H36.53c-1.89,4.72-1,7.53.31,17.69C29.26,67.36,25.87,63.36,16.29,53.83ZM83.43,71.52c1.33-10.28,2.19-13,.31-17.69h3.63a1.5,1.5,0,0,0,0-3H82.13a13.85,13.85,0,0,0-19.52-3.6L60.13,49l-2.48-1.75a13.85,13.85,0,0,0-19.52,3.6H18.93A105.53,105.53,0,0,1,50.61,41.9a8.1,8.1,0,0,1,5.92,1.64,5.75,5.75,0,0,0,7.18,0,8.11,8.11,0,0,1,6-1.68,106.44,106.44,0,0,1,31.63,8.94H94.05a1.5,1.5,0,0,0,0,3H104C94.59,63.16,91,67.34,83.43,71.52Z"/></g></g></svg>