<svg xmlns="http://www.w3.org/2000/svg" viewBox="0 0 402.08 402.08"><defs><style>.cls-1,.cls-2,.cls-4,.cls-6,.cls-7{fill:#fff;}.cls-2,.cls-3,.cls-6{stroke:#000;}.cls-2,.cls-3,.cls-6,.cls-7{stroke-miterlimit:10;}.cls-2{stroke-width:13px;}.cls-3{stroke-width:10px;}.cls-4{font-size:95.16px;font-family:PlacardMT-Condensed, Placard Condensed;letter-spacing:-0.01em;}.cls-5{letter-spacing:-0.01em;}.cls-7{font-size:75.06px;stroke:#fff;font-family:RoswellSCThreeITCTT, RoswellSCThreeITC TT;}.cls-8{letter-spacing:-0.03em;}.cls-9{letter-spacing:-0.02em;}.cls-10{letter-spacing:0em;}</style></defs><title>big logo</title><g id="Layer_2" data-name="Layer 2"><g id="Layer_1-2" data-name="Layer 1"><ellipse class="cls-1" cx="201.04" cy="201.04" rx="194.54" ry="188.38"/><circle class="cls-2" cx="201.04" cy="201.04" r="194.54"/><circle class="cls-3" cx="201.04" cy="201.04" r="170.37"/><line class="cls-1" x1="57.31" y1="249.3" x2="342.5" y2="249.3"/><path class="cls-1" d="M342.17,249.25l.33,0C341.8,249.18,342.19,249.26,342.17,249.25Z"/><path class="cls-1" d="M335.22,248.74l.12-.05-1,.09Z"/><path class="cls-1" d="M328.72,248.3c.61.5,2.36.07,3.51.3l.19.09.52-.25C331.54,248.36,329.71,248.49,328.72,248.3Z"/><path class="cls-1" d="M325.25,246.82c.21.25-.75.1.81.17l-.15-.07Z"/><path class="cls-1" d="M325.91,246.92c.68.07-.45-.24,0,0Z"/><path class="cls-1" d="M322.75,246.68l.9-.12c-.19-.17-1-.31-.69-.38C322,246.19,322.23,246.38,322.75,246.68Z"/><path class="cls-1" d="M321.9,247.08l.47-.05C322.28,247,322.16,246.92,321.9,247.08Z"/><path class="cls-1" d="M323.36,246.93l-1,.1c.13.12.14.33.45,0C322.74,247.18,322.93,247,323.36,246.93Z"/><path class="cls-1" d="M323.92,247.08c.51.19,1.16.32.25.46C325.9,247.59,325.64,247.18,323.92,247.08Z"/><path class="cls-1" d="M328.39,248.78l.68.16.58-.14C329.35,248.88,328.34,248.63,328.39,248.78Z"/><path class="cls-1" d="M317.14,245.66c-.06.17.3.49.37.71l.67-.13C317.83,246.1,317.18,245.92,317.14,245.66Z"/><path class="cls-1" d="M317.51,246.37l-1,.21C317.4,246.69,317.56,246.56,317.51,246.37Z"/><path class="cls-1" d="M321.74,247.82q.82-.21,1.64-.39c-.65.11-1.3.23-2,.38Z"/><polygon class="cls-1" points="313.33 245.2 313.89 244.83 312.89 245.38 313.33 245.2"/><path class="cls-1" d="M310.81,245c.42-.34-.57-.73-.13-.92a3.78,3.78,0,0,0-1.8.52A2.82,2.82,0,0,1,310.81,245Z"/><path class="cls-1" d="M308,245a5.16,5.16,0,0,0,.89-.38A2.34,2.34,0,0,0,308,245Z"/><path class="cls-1" d="M314.81,246.34a1.26,1.26,0,0,0-.78-.6l.39.56Z"/><path class="cls-1" d="M314.43,246.32v0l-.85-.1Z"/><path class="cls-1" d="M314.91,246.35h-.1C314.85,246.4,314.87,246.42,314.91,246.35Z"/><path class="cls-1" d="M319.12,247.26c-.59.2-1.81.43-.62.88C318.92,247.85,318.24,247.59,319.12,247.26Z"/><path class="cls-1" d="M315.4,247l1.06.19c0-.13-.21-.34.08-.45Z"/><polygon class="cls-1" points="314.88 247.16 315.4 247.03 315.01 246.96 314.88 247.16"/><path class="cls-1" d="M309.8,245.71a3.42,3.42,0,0,1-1.52.2,9.34,9.34,0,0,0,1.83.31C310.19,246,310.45,245.74,309.8,245.71Z"/><path class="cls-1" d="M312.05,246.06l-.1,0C312,246.13,312.07,246.15,312.05,246.06Z"/><path class="cls-1" d="M302.72,245.5l.09.13,0-.12Z"/><path class="cls-1" d="M310.21,246.34a1.07,1.07,0,0,0,1-.13,7.43,7.43,0,0,1-1.09,0C310.07,246.31,310.06,246.36,310.21,246.34Z"/><path class="cls-1" d="M306.44,245.13a5.5,5.5,0,0,0,.79.41C307,245.33,306.52,245,306.44,245.13Z"/><path class="cls-1" d="M311.8,245.91l.07,0C311.72,245.76,311.74,245.82,311.8,245.91Z"/><path class="cls-1" d="M311.8,245.91a2.24,2.24,0,0,0-.6.3,4.06,4.06,0,0,0,.76-.13A.82.82,0,0,1,311.8,245.91Z"/><path class="cls-1" d="M301,249.91c.08-.66,1.28-1.24,2.31-.56,1-.47.35-2.49-.54-3.72,0,.28,0,.52-1.08.85.37.38,2.32.91,1.44,1.45-1.39.29-1.14-.25-1.81-.62.57.82-1.76,1.14-1.46,2.38l1.21-.43C301.14,249.44,300.7,249.74,301,249.91Z"/><path class="cls-1" d="M304.8,245.83l.43,0a4,4,0,0,1-1.49-.95c-.72.24-.86.47-.91.68l2.12.24Z"/><path class="cls-1" d="M307.17,245.92c-.34.6-1.37.83-.74,1.55,1.26,0,.88-.49,1.64-.72-2,0,.59-.31-.89-.76a5.5,5.5,0,0,1,1.1-.08,8.23,8.23,0,0,1-1.05-.37l0,0h0c.09.09.12.14,0,.08h0a.68.68,0,0,1-.09.23c-.59-.18-.09-.17.09-.23a.6.6,0,0,0,0-.09h0l-2,.2A7.58,7.58,0,0,0,307.17,245.92Z"/><path class="cls-1" d="M317.41,249.14a.12.12,0,0,1-.07-.11C317.21,249.08,317.16,249.12,317.41,249.14Z"/><path class="cls-1" d="M316.57,248.83a1,1,0,0,1,.75-.2c.42.15,0,.23,0,.39.29-.13,1-.32.11-.58l-.14.06c-.82-.18-1.88-.86-1.73-.93A3.38,3.38,0,0,0,316.57,248.83Z"/><path class="cls-1" d="M311.81,247.66l-1.7.22.87.53,0-.3C311.9,248.25,311.69,247.88,311.81,247.66Z"/><polygon class="cls-1" points="302.53 245.14 302.75 244.43 301.77 245.38 302.53 245.14"/><polygon class="cls-1" points="300.32 245.06 300.4 244.41 299.81 244.76 300.32 245.06"/><path class="cls-1" d="M175.64,256.25l-.5.32A1.42,1.42,0,0,0,175.64,256.25Z"/><path class="cls-1" d="M179.26,256.38l.09-.57C179.18,256.12,179.11,256.35,179.26,256.38Z"/><path class="cls-1" d="M246.06,242.47c-.73-1-1.54-2.64-1.45-1.41l.22,1.2A1.15,1.15,0,0,1,246.06,242.47Z"/><path class="cls-1" d="M208.89,249.6l.21.39.49-1.24Z"/><path class="cls-1" d="M208.38,255l-1-.83A3.27,3.27,0,0,0,208.38,255Z"/><path class="cls-1" d="M155.89,257.12l-.58,1.2C156.22,258.35,155.81,257.72,155.89,257.12Z"/><path class="cls-1" d="M277.69,244a4.06,4.06,0,0,0-1.57-.67C276.88,243.93,277.49,244.79,277.69,244Z"/><path class="cls-1" d="M177.06,242.76a.93.93,0,0,0-.43.78C177,243.32,177.13,243.07,177.06,242.76Z"/><path class="cls-1" d="M274.31,243.23a4,4,0,0,0,.33.25,3.05,3.05,0,0,1,1.48-.16C275.56,242.88,274.92,242.57,274.31,243.23Z"/><path class="cls-1" d="M84.25,252.21l-.16-.08C84.07,252.21,84.14,252.22,84.25,252.21Z"/><path class="cls-1" d="M63.38,248.7l.86-.09C64.08,248.61,63.82,248.64,63.38,248.7Z"/><path class="cls-1" d="M291.43,244.08c.47,0,.07-.09,0,0Z"/><path class="cls-1" d="M293.71,247.43a.52.52,0,0,0-.19.39A.67.67,0,0,1,293.71,247.43Z"/><path class="cls-1" d="M269.64,249.45h0C269.74,249.65,269.72,249.61,269.64,249.45Z"/><path class="cls-1" d="M292.13,244.51a2.77,2.77,0,0,0-.6-.29A2.73,2.73,0,0,0,292.13,244.51Z"/><path class="cls-1" d="M292,244.11l.41.11C292.51,244.09,292.45,244,292,244.11Z"/><path class="cls-1" d="M290.77,244.08a2.57,2.57,0,0,1,.76.14c-.09-.06-.13-.11-.11-.14Z"/><path class="cls-1" d="M122.63,252.24a1,1,0,0,1-.1-.09C122.06,252.53,122.27,252.47,122.63,252.24Z"/><path class="cls-1" d="M233.86,255.07s0,0,.05-.06l-.07,0Z"/><path class="cls-1" d="M232.18,256c.72-1.56,1.12-1.38,1.67-1.06l-.56-3.58Z"/><path class="cls-1" d="M167,256.47l1.18,1.15c-1.43,1.81-2.46,1.14-1.35,2.74.17-3.89,4.59-.27,4.76-4.2l.78.84c-.22,0-.26.19-.48.15,1.52,1.92,1.13-2.84,3.08-2.25.68.31,1.16.89.69,1.36l1.52-1c.44.08.33.77-.11.69l2.31-.29,0,.12a13.35,13.35,0,0,1,1.44-2c.59.58-.29.42-.14.92l1.28-1a1.35,1.35,0,0,1-1.42,1.89c1.2,4,1.06-1,3.64,1.37l-1.21.5c.78,2.29,1.72,1.48,3.09,2.92-.32-.75-2.74-3.63-1.35-4.62.39.31.91.46,1.66-.35,0,1.44.74,1.09,1.65,1l-.06,1.91c1-.54.91-1.52,1.49-2.37,1.1.19,1.33,1.68,1.59,2.93,1.77.32-1.22-2.38.87-2.73,1.47.74,2.5,0,4.26-1.18,1,.66-.18,1.17.19,1.72l.91-1.53c.22,0,.15.51.11.74.77-.59.06-1.92,1.27-2.44.33-2.11,2.48,3.09,4,.69.37.55-.18,1.18-.07,1.92a11.72,11.72,0,0,0,3.44-3.27l1.43,1.25c-1.05-1.43.29-3.14,1.47-4.54A17.61,17.61,0,0,0,208,248l1.88-1c.23.31,0,1-.27,1.77a5.74,5.74,0,0,0,.35-.46c.67.71.32,1.81-.16,2.88-.23-.38-.46-.78-.68-1.18a8.38,8.38,0,0,0-.8,3.57,1.27,1.27,0,0,1,.62-.52,1.41,1.41,0,0,0-.14.79c.06.2.26-.22.57-.71l.43,2.13.1-.85,2.46,1.32c1.76-2.15,3.3-5.3,6.09-6.17-.69,1.55-.15,2.53-.19,4.36-.76-1.94-2.17.84-3.62.45.76.2.59,1.08.4,1.39l2.59-1.79c-.06,1.5.55,1.12,1.22,1.74-.51-3,1.93-2,3-2.9.07,1-.19,2-1.47,1.77,1.42,2.21,1.83-3.48,3.22-1.6-.31,0-.48-.12-.61.38.73-.88,2.52-.2,2.1.66l-.31,0c2.08.33,6.33-.05,6.65-2.5A32.28,32.28,0,0,1,231,255l3.71-8.23c-.33,2.09.93,7-.8,8.25a1.67,1.67,0,0,0,2.15-.13c-.34-.29-.84-3-.38-3.19,1.27,2.3.88,1.23,2.44,3.17-.51-.43.06-3.68.86-3.58-.12.48.07,3.18-.23,3.52l2-3.19c-.5.57-.09,2.67.36,3.55-.21-.61,1.72,0,2.25-.3l-.84-.71c2.25.42,2.22-4.41,4.45-4.24-.27.63-.67,3.92.47,4.28.52-1.59,2.3-7.56,4.28-8.69l.38.89,1.52-1a63.25,63.25,0,0,1-5,9.13c.84.68.23,1,1.5.93.45.82-.69,1.28-1.06,1.35l2.94.43c-.13-1.79,2.25-1.87,2.13-3.34l-3.19,1.94c-.13-1.81,1.84-5.14,3.92-4.84.53.7-.4,3.16-.35,3.75.27-.62,2-1.21,2.17-.79l-.88,1c1.16.61,1.89-2.37,3.28-.75.48.1,1.43,2.17,1.52,1.15-.78-1.92-.94-8-.41-9.47a17.49,17.49,0,0,1,3.07,2.85c.79,1.5-1.19,3.61-.51,4.9a2.45,2.45,0,0,1,.65-1.23c.5.38-.21,1.43.89,1.19.18-1.7,2.23.09.52-1.44,1.07-.5,1.14.33,2.4.22-.4-1.07,1.13-3.66,2.2-4.11a2.41,2.41,0,0,0,.29,1.2c2.2.15,3.38.86,5.43.86.19.38,1.18.81.76,1.49.29-.28.57-.81,1.2-.85,1.22,1.3-1.41.23-.48,1.81.08-.9,1.63-1.27,2.54-1.83-.28-1.35-2.08-.24-3,.34a5.44,5.44,0,0,1,3.71-4.7c1.7-.41.74,1.2,1,1,3.2.35,2.72-3,5.38-1.67,1.05,1.13,0,2.18.28,3-1.39.41-2.13-.72-3.07-.69l1.16.54a1.85,1.85,0,0,1-1.87.33c.88,1,5.4.21,7.87,1.07.44-.35,1.19-.71.84-1.12l-.78.14c-.72-.85,1.47-1.14.48-1.54,1-.57,2.22-1.41,3.69-.89l.28,1.13c0-.32-1-.69-1.38-.36.61-.47,2.26,1.55,2.93.13l-1-.79c1.05-.53,2.35-1.58,3.66-1.16-.59-1.08-.3.11-1.23-1.19.8,1.59-3.34-.31-2,1.43-1-1.54-1.65-.72-2.89-2.11,0,.38.44.76-.66.49a1.44,1.44,0,0,1-.24.32l-.07,0,.06,0c0,.05-.05.07,0,0a1.56,1.56,0,0,1,.56.62c-.54.84-2.29.74-2.88,1.19-.65-.21.27-.44-.08-.88l-.88.67c-.09-.88-1.73-1.58-.2-2l-1.38-.13a2.86,2.86,0,0,0-2.62-.5c-.65-.25-1.64.94-1.08.24l-2.16.47,0-.24c-2.14-.27-4.4,1.46-6.84-.51a4,4,0,0,1-2.66.16l-.23-.92c-.92.28-2.77-1.08-3.17-.13-1-2.59-4.48-.8-6.1-1.33l-.06,1.27a8.28,8.28,0,0,0-3.58.67l.09,1.15c-1.2.92-3.07-.92-5-.86.13-.45.61-.32.95,0-2.26-2.77-4.77,1.83-6.82-.2a.82.82,0,0,1-1.24,0,.2.2,0,0,0,.13-.06l-.21,0c-.23-.22-.46-.47-.71-.67a2.74,2.74,0,0,0,.6.67,4.09,4.09,0,0,0-1.58.45l-.25-1.33-.14,0c-.57-.51-.46.62-.16,1.63a3,3,0,0,0-.77.79c-.47-2.17-1.54.7-2.17-1.62-.39,1.12-2.94.79-3.26,3.19,0-.31-.19-.47.12-.48-.65-.28-1.3-.57-1.89.11l-.28-1.74-1.43,2.33c-.87-1.07-1.22-1.7-.37-3-2.08,2-1.68.75-3.45,2.8l.09-1.14c-.63,0-1.64,1.56-2,.61-1.41-2.2-7-.36-10.61-2.45.7,3.46-1.68-1.56-1.83,1.12-.21-.82-.72-1.29-.13-2-1.85.79-2.78-1.33-4.06.93-.21-.83.4-1.2.21-1.69-.15.18-.59.71-.78.22s.27-.69.56-1c-1.89.12-2.08,2.66-2.22,5-1-1.13-1.43-1-2.13.59-.33-.78-.89-1.6.28-1.88-.66-.12-4-1.16-4.1.76-.21-.49-.92-.14-1.1.08a10.62,10.62,0,0,0-3.07-.11l.4.31c-.57,2.31-1.21.52-2.38.8l0-.24c-2.69-1.67-1.16.8-3.81-1.1l.14,1.44c-.25,3.09-2.35-1.82-3.89-.63l.56.82c-.84,1.05-2.35-4.18-3.2-4.56-.18-.27.29-.43.55-.63-2.21-1.8-.29,1.87-1.93,2.32-.3-1,.39-2.57-.72-2.75-.55-.81-3.22,3.29-4.73,1.38.33.77.66,1.54-.1,2.12-1.17.28-3.17-2.88-4.23-.44a1.07,1.07,0,0,1-.21-.6c-.9.63-2.91,1.07-3.45,2.37-.83-4.8-5.58,2.38-5.56-2l-2.76.28.07-.45c-1.76-.26-2.39.8-3,1.84-.41-.29-.11-.7-.08-.92-2.58-.83-2.83-.62-5,1.52l-.22-1.37c-.59.8-3.72-2.06-6.25-.42a1.05,1.05,0,0,1,.28-.61c-1.42.82-3.12-.06-4.6-.52s-2.73-.49-3.25,1.85l-1.88,1.19c2.43.32-.36,2,.64,2.77-1,.27-2.47-1.38-1.29-1.63l.18.23c.43-2.41-3-.81-3-2.42-4.78.23-9.43-.87-13.91-.75l.52,1.63-1.56,0c-.41-.37-.55-1.25.56-1.23-.59-.9-1.87.85-1.9,1.19-2.18-.57.85-1.91.18-1.93l-.91.16.2.18c-.74.69-.8,1.38-2.14,1.35-.85-.28-.43-.95-.77-1,0-.11-.11-.16-.51,0l-2,0,.79,1.17c-.87.63-1.85,0-.94,1.33-1.33-2-7.33-.49-8.15-1.06a6,6,0,0,1-3.92.81c.37.2.59,1.35-.69,1.23.47-2.35-2.36-.95-3.4-2.49.93,1-3.66.46-2.2,1.83-1.07-.13-.07-.79-.88-1.25-2.56.91-5.63-.17-8.79.33,0,.23.48.54-.2.91q-.83-.52-1.67-1c-.62.16-.57,1.25-1.71.6.16.16.4.41,0,.49a52.24,52.24,0,0,0-9.43.37c-3.17.29-6.36.36-9.5.39.85,0,.28.12-.37.18.42,0,0,.16.07.24-.88,0-1.75,0-2.63,0-.48.18-2.82.27-3.1.36l.83-.07c-.55.08-.17.08.34.14s1.13.16,1,.25a10.94,10.94,0,0,1,2.36.2,8.65,8.65,0,0,0,3,.15c.45.12-.38.11-.14.22a5.59,5.59,0,0,1,2.29,0l-.13,0a68.08,68.08,0,0,1,8.28,1.07l-.27-.44a4,4,0,0,1,1.32.4c.9-.6-2.2-.2-1.38-.84.52.44,1.9.55,3.24.66s2.64.22,3,.86c1.21.1-.35-.64.85-.55l.32.36.3-.42c.79.12,1.19.59,1.22.9a3.28,3.28,0,0,0-.75,0c1,.52,2.89.11,3.24.27l-1.16-.32c3.29-.13,7.3.74,10.48,0l-.24-.36c2.43-.56,1.94.49,4.61.3l-.1.09a3.05,3.05,0,0,1,2-.45c-.67.43,1.27,1,.38,1.43,2.63-.66,1.3-.54,3-2l.4.7a2.35,2.35,0,0,1,2-1.1c-1.09.58.85,1.11-.37,1.87,2.79,1.73,4.15-1.47,5.43,1,1.28-2.05-2.42-1.25-1.7-1.67-.6-.68,1.06-1.52,1.93-1.3.89.05,1.52,2.74,3.76,2.82-.22,0-.24.15-.46.12.84.6,1.65-.69,2.68.28.58-1.34,1.34.13,1.5-1.61l-2.06.34c1.17-.4,2.26-2.45,4.18-1.41a3.26,3.26,0,0,1-1.11,1.07c.56.54,1.08-.32,1.66.24-.17,1.79-2.5.31-3.75,1.59.6.77,2.36-1.17,1.74.71.9-2.4,2.21.43,3.73-1.41l-.1,1.09c.24-.16.74-.66,1.18-.62l-.8,1.39c1.23-1.17,2.37,1.19,3.55.58-2.47-.09-.55-1.38-1.6-2.24,3-1.41,1.75,3,5.16,2.65-.46.14-1.73-.77-1-1.27a4.2,4.2,0,0,1,1.91,1.38c2.26-.14-.35-1.22.62-1.9.77,1.46,1.11-.54,2.1-1v1.21c2.58.87.68-2.51,3-1.51l-1,1.67,1.21-.4-.25,1.39c1.32-1,1.72-.72,3-.27-.3-.89.17-2.26,1.31-2.28.78.77-.44,1.19,1.18,1.05-.37.78-.77,1.76-1.47.58-.07.41-.36.78-.43,1.18.84.89,2.11.28,2.69.28a1.11,1.11,0,0,1-.63-.32l2.34-1.71c.37.49.08.87-.21,1.25.47-.13.8-.71,1.5-.8-.18,1-.14,2.13-1.13,2.59l2.23-1.09c.15.46,1.15,1.31.86,1.69,1.24.69,3-2,4.68-1.09a1,1,0,0,1,.61-.55c1.54.28,2.91,1.68,4.74.22l1,2c1.43-.41-1.4-2.53,1-3.23,1.69-.61.63,1.72,1.22,2.28.84-1,2.3-3,3.85-1.35C167.86,256.63,167.46,256.33,167,256.47Zm17.66-.67c-.34.3-1,1.22-1.27.37C183.76,254.54,184.06,255.32,184.64,255.8Zm26.85-3.43c-.25.47-.65.24-1.09-.3A1,1,0,0,1,211.49,252.37Zm74.8-7.83,0,0C285.49,244.16,285.76,244.32,286.29,244.54Zm1.59.51a.29.29,0,0,0,.08-.4c-.11.24-.47.24-.87.14C287.2,245.06,287.4,245.24,287.88,245Zm-170.25.14.31.26C117.24,245.77,117.44,245.49,117.63,245.19Z"/><path class="cls-1" d="M208.45,254.35a2.73,2.73,0,0,1-.15-.78A.59.59,0,0,0,208.45,254.35Z"/><path class="cls-1" d="M156,256.9l-.05,0a1,1,0,0,0-.05.24Z"/><path class="cls-1" d="M263.32,254.22a1.38,1.38,0,0,1-.63-.6C262.67,253.91,262.82,254.16,263.32,254.22Z"/><path class="cls-1" d="M296.28,244l-1,.15a1.37,1.37,0,0,1,.91.35C296.15,244.34,296,244,296.28,244Z"/><path class="cls-1" d="M305.09,249.37c.15-.09.31,0,.46-.1l0-.34C304.88,248.94,304.44,249.22,305.09,249.37Z"/><path class="cls-1" d="M297.22,246.94c.08.72.72.49,1.43.39h-.13C298.73,246.36,298,246.64,297.22,246.94Z"/><path class="cls-1" d="M298.81,247.31a2.26,2.26,0,0,1,.66,0C299.55,246.93,299.2,247.22,298.81,247.31Z"/><path class="cls-1" d="M289.89,244.63c.34.22.21-1,.4-.66C290.67,243,288,245,289.89,244.63Z"/><polygon class="cls-1" points="297.79 249.3 297.54 248.42 297.14 249.12 297.79 249.3"/><path class="cls-1" d="M292.18,248.6l1.14.27c0-.16.13-.25.3-.31C292.92,248.51,292.15,248.32,292.18,248.6Z"/><path class="cls-1" d="M293.62,248.55a1.51,1.51,0,0,0,.91-.14A3.2,3.2,0,0,0,293.62,248.55Z"/><polygon class="cls-1" points="296.24 249.56 295.9 249.38 295.1 249.31 296.24 249.56"/><path class="cls-1" d="M280,248.28l-1.24.3c-.13.38.21.61.67.46C279.69,248.79,280.15,248.64,280,248.28Z"/><path class="cls-1" d="M283.71,251.2c-.34-.21-.36-.45-.55-.79l0,1.31Z"/><path class="cls-1" d="M280.09,251.59c-.12.38-1.8,1.14-.23,1C280,252.22,281.23,251.87,280.09,251.59Z"/><polygon class="cls-1" points="261.4 249.97 261.72 249.95 261.67 247.37 261.4 249.97"/><path class="cls-1" d="M244.93,256.74c1.47.63.35-1.74,1.68-.94.35-.67-1.09-.66-.73-1.24C245,255.29,244.52,254.91,244.93,256.74Z"/><path class="cls-1" d="M245.87,254.57a3.49,3.49,0,0,0,.45-.43A1.54,1.54,0,0,0,245.87,254.57Z"/><polygon class="cls-1" points="59.92 248.95 58.97 249.06 59.58 249.01 59.92 248.95"/><path class="cls-1" d="M58.1,249.22h-.22l-.57.08Z"/><path class="cls-1" d="M187.27,259.72l.07-.46c-.15-.51-.37-.54-.81-.63Z"/><polygon class="cls-1" points="174.45 258.09 174.67 258.13 174.26 256.41 174.45 258.09"/><path class="cls-1" d="M163.69,260c.44.09,1-.27,1.4-.19C164.13,260.05,163.57,257.89,163.69,260Z"/><text class="cls-4" transform="translate(126.84 132.8) scale(0.86 1)">BITTER<tspan class="cls-5"><tspan x="3.13" y="78.81">SWEET</tspan></tspan></text><rect class="cls-1" x="198.15" y="54.57" width="2.92" height="9.96"/><line class="cls-6" x1="198.32" y1="64.54" x2="201.49" y2="64.54"/><text class="cls-7" transform="translate(143.32 334.91) scale(1.29 1.25)"><tspan class="cls-8">ta</tspan><tspan x="26.27" y="0">t</tspan><tspan class="cls-9" x="42.18" y="0">t</tspan><tspan class="cls-10" x="56.37" y="0">oo</tspan></text></g></g></svg>